<svg width="40" height="40" viewBox="0 0 40 40" fill="none" xmlns="http://www.w3.org/2000/svg">
<path d="M35.9101 13.2325C35.4413 12.7638 34.8055 12.5005 34.1426 12.5005C33.4797 12.5005 32.8439 12.7638 32.3751 13.2325L20.0001 25.6075L7.62512 13.2325C7.15362 12.7771 6.52211 12.5251 5.86662 12.5308C5.21113 12.5365 4.5841 12.7994 4.12058 13.263C3.65706 13.7265 3.39414 14.3535 3.38844 15.009C3.38274 15.6645 3.63473 16.296 4.09013 16.7675L18.2326 30.91C18.7014 31.3787 19.3372 31.642 20.0001 31.642C20.663 31.642 21.2988 31.3787 21.7676 30.91L35.9101 16.7675C36.3788 16.2987 36.6421 15.6629 36.6421 15C36.6421 14.3371 36.3788 13.7013 35.9101 13.2325Z" fill="#E0E0E0"/>
</svg>
