<svg width="40" height="40" viewBox="0 0 40 40" fill="none" xmlns="http://www.w3.org/2000/svg">
<path d="M35.9101 13.2324C35.4413 12.7637 34.8055 12.5004 34.1426 12.5004C33.4797 12.5004 32.8439 12.7637 32.3751 13.2324L20.0001 25.6074L7.62512 13.2324C7.15362 12.777 6.52211 12.525 5.86662 12.5307C5.21113 12.5364 4.5841 12.7993 4.12058 13.2628C3.65706 13.7264 3.39414 14.3534 3.38844 15.0089C3.38274 15.6644 3.63473 16.2959 4.09013 16.7674L18.2326 30.9099C18.7014 31.3786 19.3372 31.6418 20.0001 31.6418C20.663 31.6418 21.2988 31.3786 21.7676 30.9099L35.9101 16.7674C36.3788 16.2986 36.6421 15.6628 36.6421 14.9999C36.6421 14.337 36.3788 13.7012 35.9101 13.2324Z" fill="white"/>
</svg>
