<svg width="400" height="480" viewBox="0 0 400 480" fill="none" xmlns="http://www.w3.org/2000/svg">
<rect width="400" height="480" fill="#282828"/>
<path d="M159.727 238.208C158.447 236.267 157.455 234.027 156.751 231.488C156.068 228.928 155.727 226.176 155.727 223.232C155.727 220.288 156.068 217.536 156.751 214.976C157.455 212.395 158.447 210.155 159.727 208.256H164.495C163.151 210.667 162.169 213.099 161.551 215.552C160.932 217.984 160.623 220.544 160.623 223.232C160.623 225.92 160.932 228.491 161.551 230.944C162.169 233.376 163.151 235.797 164.495 238.208H159.727ZM166.812 228.672V224.672L180.54 219.68V221.92L166.812 216.928V212.928L182.044 218.72V222.88L166.812 228.672ZM183.984 230.592C185.136 230.592 186.16 231.168 186.992 231.648C187.44 231.904 188.528 232.416 189.328 232.416C190.096 232.416 190.832 232.128 191.728 231.648C192.464 231.232 193.264 230.592 194.64 230.592C196.048 230.592 196.816 231.232 197.584 231.648C198.48 232.128 199.216 232.416 199.984 232.416C200.752 232.416 201.872 231.904 202.32 231.648C203.12 231.168 204.144 230.592 205.296 230.592C206.448 230.592 207.472 231.168 208.272 231.648C208.72 231.904 209.84 232.416 210.608 232.416C211.376 232.416 212.112 232.128 213.008 231.648C213.776 231.232 214.608 230.592 215.984 230.592V233.12C214.864 233.12 214.096 233.632 213.68 233.888C212.624 234.464 211.792 234.944 210.608 234.944C209.424 234.944 208.368 234.272 207.632 233.888C206.736 233.408 206.032 233.12 205.296 233.12C204.56 233.12 203.856 233.408 202.96 233.888C202.224 234.304 201.168 234.944 199.984 234.944C198.8 234.944 197.968 234.464 196.912 233.888C196.496 233.632 195.76 233.12 194.64 233.12C193.52 233.12 192.816 233.632 192.4 233.888C191.312 234.464 190.48 234.944 189.328 234.944C188.144 234.944 187.056 234.272 186.352 233.888C185.456 233.408 184.752 233.12 183.984 233.12V230.592ZM233.2 228.672L217.968 222.88V218.72L233.2 212.928V216.928L219.472 221.92V219.68L233.2 224.672V228.672ZM240.229 238.208H235.461C236.847 235.797 237.839 233.376 238.437 230.944C239.055 228.491 239.365 225.92 239.365 223.232C239.365 220.544 239.055 217.984 238.437 215.552C237.839 213.099 236.847 210.667 235.461 208.256H240.229C241.551 210.155 242.554 212.395 243.237 214.976C243.919 217.536 244.261 220.288 244.261 223.232C244.261 226.176 243.919 228.928 243.237 231.488C242.554 234.027 241.551 236.267 240.229 238.208ZM82.1434 271V248.6H102.559V271H97.4074V251.64L98.5914 252.824H86.1114L87.2954 251.64V271H82.1434ZM115.792 271.256C113.957 271.256 112.325 270.872 110.896 270.104C109.488 269.336 108.368 268.291 107.536 266.968C106.725 265.624 106.32 264.099 106.32 262.392C106.32 260.664 106.725 259.139 107.536 257.816C108.368 256.472 109.488 255.427 110.896 254.68C112.325 253.912 113.957 253.528 115.792 253.528C117.605 253.528 119.227 253.912 120.656 254.68C122.085 255.427 123.205 256.461 124.016 257.784C124.827 259.107 125.232 260.643 125.232 262.392C125.232 264.099 124.827 265.624 124.016 266.968C123.205 268.291 122.085 269.336 120.656 270.104C119.227 270.872 117.605 271.256 115.792 271.256ZM115.792 267.16C116.624 267.16 117.371 266.968 118.032 266.584C118.693 266.2 119.216 265.656 119.6 264.952C119.984 264.227 120.176 263.373 120.176 262.392C120.176 261.389 119.984 260.536 119.6 259.832C119.216 259.128 118.693 258.584 118.032 258.2C117.371 257.816 116.624 257.624 115.792 257.624C114.96 257.624 114.213 257.816 113.552 258.2C112.891 258.584 112.357 259.128 111.952 259.832C111.568 260.536 111.376 261.389 111.376 262.392C111.376 263.373 111.568 264.227 111.952 264.952C112.357 265.656 112.891 266.2 113.552 266.584C114.213 266.968 114.96 267.16 115.792 267.16ZM136.858 271.256C135.002 271.256 133.348 270.883 131.898 270.136C130.447 269.368 129.306 268.312 128.474 266.968C127.663 265.624 127.258 264.099 127.258 262.392C127.258 260.664 127.663 259.139 128.474 257.816C129.306 256.472 130.447 255.427 131.898 254.68C133.348 253.912 135.002 253.528 136.858 253.528C138.671 253.528 140.25 253.912 141.594 254.68C142.938 255.427 143.93 256.504 144.57 257.912L140.698 259.992C140.25 259.181 139.684 258.584 139.002 258.2C138.34 257.816 137.615 257.624 136.826 257.624C135.972 257.624 135.204 257.816 134.522 258.2C133.839 258.584 133.295 259.128 132.89 259.832C132.506 260.536 132.314 261.389 132.314 262.392C132.314 263.395 132.506 264.248 132.89 264.952C133.295 265.656 133.839 266.2 134.522 266.584C135.204 266.968 135.972 267.16 136.826 267.16C137.615 267.16 138.34 266.979 139.002 266.616C139.684 266.232 140.25 265.624 140.698 264.792L144.57 266.904C143.93 268.291 142.938 269.368 141.594 270.136C140.25 270.883 138.671 271.256 136.858 271.256ZM151.252 271V256.728L152.372 257.88H145.428V253.784H162.036V257.88H155.092L156.212 256.728V271H151.252ZM172.394 271.256C170.431 271.256 168.703 270.872 167.21 270.104C165.738 269.336 164.597 268.291 163.786 266.968C162.975 265.624 162.57 264.099 162.57 262.392C162.57 260.664 162.965 259.139 163.754 257.816C164.565 256.472 165.663 255.427 167.05 254.68C168.437 253.912 170.005 253.528 171.754 253.528C173.439 253.528 174.954 253.891 176.298 254.616C177.663 255.32 178.741 256.344 179.53 257.688C180.319 259.011 180.714 260.6 180.714 262.456C180.714 262.648 180.703 262.872 180.682 263.128C180.661 263.363 180.639 263.587 180.618 263.8H166.634V260.888H177.994L176.074 261.752C176.074 260.856 175.893 260.077 175.53 259.416C175.167 258.755 174.666 258.243 174.026 257.88C173.386 257.496 172.639 257.304 171.786 257.304C170.933 257.304 170.175 257.496 169.514 257.88C168.874 258.243 168.373 258.765 168.01 259.448C167.647 260.109 167.466 260.899 167.466 261.816V262.584C167.466 263.523 167.669 264.355 168.074 265.08C168.501 265.784 169.087 266.328 169.834 266.712C170.602 267.075 171.498 267.256 172.522 267.256C173.439 267.256 174.239 267.117 174.922 266.84C175.626 266.563 176.266 266.147 176.842 265.592L179.498 268.472C178.709 269.368 177.717 270.061 176.522 270.552C175.327 271.021 173.951 271.256 172.394 271.256ZM194.685 271.256C193.234 271.256 191.965 270.936 190.877 270.296C189.789 269.656 188.935 268.685 188.317 267.384C187.719 266.061 187.421 264.397 187.421 262.392C187.421 260.365 187.709 258.701 188.285 257.4C188.861 256.099 189.693 255.128 190.781 254.488C191.869 253.848 193.17 253.528 194.685 253.528C196.306 253.528 197.757 253.901 199.037 254.648C200.338 255.373 201.362 256.397 202.109 257.72C202.877 259.043 203.261 260.6 203.261 262.392C203.261 264.205 202.877 265.773 202.109 267.096C201.362 268.419 200.338 269.443 199.037 270.168C197.757 270.893 196.306 271.256 194.685 271.256ZM184.509 277.208V253.784H189.277V257.304L189.181 262.424L189.501 267.512V277.208H184.509ZM193.821 267.16C194.653 267.16 195.389 266.968 196.029 266.584C196.69 266.2 197.213 265.656 197.597 264.952C198.002 264.227 198.205 263.373 198.205 262.392C198.205 261.389 198.002 260.536 197.597 259.832C197.213 259.128 196.69 258.584 196.029 258.2C195.389 257.816 194.653 257.624 193.821 257.624C192.989 257.624 192.242 257.816 191.581 258.2C190.919 258.584 190.397 259.128 190.013 259.832C189.629 260.536 189.437 261.389 189.437 262.392C189.437 263.373 189.629 264.227 190.013 264.952C190.397 265.656 190.919 266.2 191.581 266.584C192.242 266.968 192.989 267.16 193.821 267.16ZM216.782 271V267.64L216.462 266.904V260.888C216.462 259.821 216.131 258.989 215.47 258.392C214.83 257.795 213.838 257.496 212.494 257.496C211.577 257.496 210.67 257.645 209.774 257.944C208.899 258.221 208.153 258.605 207.534 259.096L205.742 255.608C206.681 254.947 207.811 254.435 209.134 254.072C210.457 253.709 211.801 253.528 213.166 253.528C215.79 253.528 217.827 254.147 219.278 255.384C220.729 256.621 221.454 258.552 221.454 261.176V271H216.782ZM211.534 271.256C210.19 271.256 209.038 271.032 208.078 270.584C207.118 270.115 206.382 269.485 205.87 268.696C205.358 267.907 205.102 267.021 205.102 266.04C205.102 265.016 205.347 264.12 205.838 263.352C206.35 262.584 207.15 261.987 208.238 261.56C209.326 261.112 210.745 260.888 212.494 260.888H217.07V263.8H213.038C211.865 263.8 211.054 263.992 210.606 264.376C210.179 264.76 209.966 265.24 209.966 265.816C209.966 266.456 210.211 266.968 210.702 267.352C211.214 267.715 211.907 267.896 212.782 267.896C213.614 267.896 214.361 267.704 215.022 267.32C215.683 266.915 216.163 266.328 216.462 265.56L217.23 267.864C216.867 268.973 216.206 269.816 215.246 270.392C214.286 270.968 213.049 271.256 211.534 271.256ZM234.853 271V253.784H239.813V260.504H247.301V253.784H252.293V271H247.301V264.568H239.813V271H234.853ZM265.488 271.256C263.525 271.256 261.797 270.872 260.304 270.104C258.832 269.336 257.691 268.291 256.88 266.968C256.069 265.624 255.664 264.099 255.664 262.392C255.664 260.664 256.059 259.139 256.848 257.816C257.659 256.472 258.757 255.427 260.144 254.68C261.531 253.912 263.099 253.528 264.848 253.528C266.533 253.528 268.048 253.891 269.392 254.616C270.757 255.32 271.835 256.344 272.624 257.688C273.413 259.011 273.808 260.6 273.808 262.456C273.808 262.648 273.797 262.872 273.776 263.128C273.755 263.363 273.733 263.587 273.712 263.8H259.728V260.888H271.088L269.168 261.752C269.168 260.856 268.987 260.077 268.624 259.416C268.261 258.755 267.76 258.243 267.12 257.88C266.48 257.496 265.733 257.304 264.88 257.304C264.027 257.304 263.269 257.496 262.608 257.88C261.968 258.243 261.467 258.765 261.104 259.448C260.741 260.109 260.56 260.899 260.56 261.816V262.584C260.56 263.523 260.763 264.355 261.168 265.08C261.595 265.784 262.181 266.328 262.928 266.712C263.696 267.075 264.592 267.256 265.616 267.256C266.533 267.256 267.333 267.117 268.016 266.84C268.72 266.563 269.36 266.147 269.936 265.592L272.592 268.472C271.803 269.368 270.811 270.061 269.616 270.552C268.421 271.021 267.045 271.256 265.488 271.256ZM280.721 271V256.728L281.841 257.88H274.897V253.784H291.505V257.88H284.561L285.681 256.728V271H280.721ZM305.02 259.768C304.167 259.768 303.431 259.48 302.812 258.904C302.215 258.307 301.916 257.549 301.916 256.632C301.916 255.715 302.215 254.979 302.812 254.424C303.431 253.848 304.167 253.56 305.02 253.56C305.895 253.56 306.631 253.848 307.228 254.424C307.825 254.979 308.124 255.715 308.124 256.632C308.124 257.549 307.825 258.307 307.228 258.904C306.631 259.48 305.895 259.768 305.02 259.768ZM305.02 271.256C304.167 271.256 303.431 270.968 302.812 270.392C302.215 269.795 301.916 269.037 301.916 268.12C301.916 267.203 302.215 266.467 302.812 265.912C303.431 265.336 304.167 265.048 305.02 265.048C305.895 265.048 306.631 265.336 307.228 265.912C307.825 266.467 308.124 267.203 308.124 268.12C308.124 269.037 307.825 269.795 307.228 270.392C306.631 270.968 305.895 271.256 305.02 271.256ZM315.539 277.208C314.259 275.267 313.267 273.027 312.563 270.488C311.88 267.928 311.539 265.176 311.539 262.232C311.539 259.288 311.88 256.536 312.563 253.976C313.267 251.395 314.259 249.155 315.539 247.256H320.307C318.963 249.667 317.982 252.099 317.363 254.552C316.744 256.984 316.435 259.544 316.435 262.232C316.435 264.92 316.744 267.491 317.363 269.944C317.982 272.376 318.963 274.797 320.307 277.208H315.539Z" fill="white"/>
</svg>
